<?xml version="1.0" standalone="no"?>
<!DOCTYPE svg PUBLIC "-//W3C//DTD SVG 20010904//EN"
 "http://www.w3.org/TR/2001/REC-SVG-20010904/DTD/svg10.dtd">
<svg version="1.0" xmlns="http://www.w3.org/2000/svg"
 width="1000.000000pt" height="1000.000000pt" viewBox="0 0 1000.000000 1000.000000"
 preserveAspectRatio="xMidYMid meet">
<metadata>
Created by potrace 1.11, written by Peter Selinger 2001-2013
</metadata>
<g transform="translate(0.000000,1000.000000) scale(0.100000,-0.100000)"
fill="#000000" stroke="none">
<path d="M9467 8509 c-191 -192 -352 -349 -357 -349 -6 0 -9 -4 -7 -8 3 -10
-65 -78 -75 -74 -5 1 -8 -3 -8 -8 0 -13 -183 -195 -192 -192 -5 1 -8 -3 -8 -8
0 -13 -62 -76 -72 -72 -5 1 -8 -3 -8 -8 0 -13 -83 -96 -92 -92 -5 1 -8 -3 -8
-8 0 -13 -218 -230 -230 -230 -6 0 -9 -3 -8 -7 4 -11 -59 -73 -66 -66 -3 4 -6
1 -6 -5 0 -17 -32 -52 -42 -46 -4 3 -8 1 -8 -5 0 -13 -119 -131 -131 -131 -5
0 -8 -3 -7 -7 3 -10 -142 -153 -154 -153 -4 0 -7 -3 -6 -7 1 -5 -64 -74 -145
-155 -81 -81 -147 -144 -147 -140 0 3 -10 -8 -22 -24 -33 -44 -55 -64 -62 -57
-3 4 -6 2 -6 -4 0 -13 -159 -173 -172 -173 -5 0 -7 -3 -5 -7 6 -10 -49 -64
-57 -56 -3 4 -6 2 -6 -4 0 -14 -97 -112 -104 -105 -4 3 -6 0 -6 -7 0 -15 -25
-41 -39 -41 -6 0 -10 -6 -8 -12 1 -7 -4 -12 -10 -11 -7 2 -13 -2 -13 -8 0 -14
-26 -39 -40 -39 -6 0 -9 -3 -7 -7 6 -10 -39 -53 -47 -46 -3 4 -6 2 -6 -3 0
-14 -62 -80 -72 -77 -4 2 -8 -4 -8 -13 0 -8 -4 -12 -10 -9 -5 3 -10 2 -10 -4
0 -15 -46 -62 -53 -54 -4 3 -7 -1 -7 -11 0 -9 -4 -15 -9 -11 -5 3 -12 -4 -16
-14 -3 -11 -15 -23 -26 -26 -10 -4 -18 -9 -16 -13 5 -9 -81 -91 -88 -84 -3 3
-5 -2 -5 -12 0 -9 -4 -14 -10 -11 -5 3 -10 1 -10 -4 0 -15 -37 -51 -44 -43 -3
3 -6 1 -6 -4 0 -13 -117 -133 -124 -127 -2 2 -7 -4 -11 -14 -4 -10 -33 -40
-65 -68 -32 -27 -59 -53 -59 -57 -1 -8 -193 -197 -213 -209 -7 -5 -10 -9 -7
-9 7 0 -44 -52 -115 -118 -25 -23 -44 -42 -42 -42 3 0 -10 -15 -27 -33 -18
-18 -35 -31 -39 -29 -5 2 -8 -1 -8 -6 0 -14 -47 -62 -54 -55 -3 4 -6 -1 -6 -9
0 -9 -4 -18 -10 -20 -9 -3 -201 -188 -195 -188 1 0 -18 -21 -44 -48 -25 -26
-48 -47 -51 -47 -5 0 -127 -123 -126 -127 1 -2 -18 -22 -41 -44 -24 -23 -43
-40 -43 -37 0 2 -18 -17 -40 -42 -22 -25 -40 -44 -40 -42 0 2 -21 -16 -48 -42
-26 -25 -46 -49 -45 -53 2 -4 -6 -9 -17 -13 -11 -4 -18 -11 -15 -16 4 -5 -1
-9 -10 -9 -9 0 -14 -4 -10 -9 3 -5 -4 -12 -15 -16 -11 -4 -18 -10 -15 -15 3
-5 -3 -11 -12 -15 -10 -3 -31 -23 -48 -44 -16 -21 -32 -37 -35 -36 -3 2 -16
-10 -29 -26 -13 -16 -30 -29 -38 -29 -8 0 -12 4 -9 8 2 4 -9 17 -25 27 -16 11
-29 26 -29 33 0 6 -7 12 -16 12 -8 0 -13 4 -10 8 3 5 -6 15 -19 22 -13 7 -22
16 -20 20 2 3 -5 13 -17 21 -26 18 -78 72 -78 81 0 4 -8 9 -18 12 -11 4 -25
18 -32 31 -7 14 -17 25 -21 25 -10 0 -89 81 -89 91 0 5 -7 9 -17 9 -9 0 -14 3
-10 6 8 8 -18 34 -33 34 -6 0 -9 4 -5 9 3 5 -4 12 -15 16 -11 3 -20 13 -20 21
0 8 -4 14 -9 14 -12 0 -71 59 -71 70 0 5 -9 12 -20 15 -11 3 -20 13 -20 21 0
8 -6 14 -14 14 -8 0 -18 9 -21 20 -4 11 -11 18 -16 15 -5 -4 -9 1 -9 10 0 9
-4 13 -10 10 -5 -3 -10 1 -10 9 0 9 -6 16 -14 16 -8 0 -18 9 -21 21 -4 11 -9
18 -12 16 -6 -6 -53 41 -53 53 0 6 -4 10 -9 10 -11 0 -111 100 -111 112 0 4
-4 8 -8 8 -5 0 -43 34 -84 75 -41 41 -74 75 -71 75 2 0 -2 6 -9 14 -7 8 -16
12 -20 9 -5 -2 -8 4 -8 13 0 10 -2 15 -5 12 -6 -6 -83 64 -79 72 1 3 -4 11
-12 18 -8 7 -14 11 -14 8 0 -2 -25 21 -55 52 -30 31 -55 60 -55 65 0 4 -4 5
-10 2 -5 -3 -10 2 -10 11 0 10 -3 15 -6 11 -8 -7 -34 17 -34 32 0 6 -4 11 -10
11 -14 0 -50 37 -50 52 0 6 -3 9 -6 6 -6 -7 -54 39 -54 52 0 6 -4 10 -10 10
-5 0 -25 16 -44 35 -20 19 -33 35 -30 35 3 0 -9 12 -26 27 -49 41 -90 84 -90
94 0 5 -4 9 -8 9 -12 0 -192 181 -192 193 0 6 -3 8 -6 4 -6 -6 -27 13 -61 57
-13 16 -23 26 -23 23 0 -3 -34 28 -75 70 -41 41 -75 79 -75 84 0 5 -4 9 -9 9
-13 0 -71 59 -71 72 0 6 -2 9 -5 6 -7 -7 -155 140 -155 153 0 6 -5 7 -10 4 -6
-3 -10 1 -10 10 0 9 -3 14 -8 12 -4 -2 -28 18 -54 45 -26 26 -44 48 -41 48 3
0 -5 9 -18 19 -44 34 -679 672 -679 682 0 5 -3 8 -7 7 -5 -2 -56 46 -115 105
-59 59 -105 107 -101 107 4 0 -4 8 -17 17 -14 10 -33 28 -43 40 -10 13 -23 21
-28 18 -5 -4 -9 -1 -9 5 0 7 -121 133 -270 281 -148 148 -270 275 -270 281 0
6 -3 9 -6 5 -8 -7 -234 220 -234 235 0 6 -3 9 -6 6 -7 -8 -482 465 -477 475 2
4 -3 7 -11 7 -14 0 -16 -124 -16 -1247 l0 -1248 245 -244 c135 -134 245 -247
245 -252 0 -5 4 -9 8 -9 13 0 252 -240 252 -252 0 -6 2 -9 5 -6 7 6 115 -97
115 -109 0 -5 10 -13 23 -18 12 -6 21 -16 19 -23 -1 -7 2 -12 7 -12 13 0 251
-239 251 -252 0 -6 2 -9 5 -6 7 7 155 -139 155 -152 0 -6 5 -10 11 -10 14 0
69 -55 69 -69 0 -6 4 -11 9 -11 5 0 687 -677 1515 -1504 828 -827 1507 -1501
1510 -1498 3 3 6 0 6 -6 0 -15 258 -272 273 -272 6 0 8 -3 4 -6 -3 -3 15 -26
40 -50 24 -24 41 -44 37 -44 -4 0 -3 -5 4 -12 9 -9 15 -8 26 7 8 11 13 23 10
26 -2 3 8 11 22 18 14 6 22 16 19 21 -3 6 -2 10 4 10 14 0 271 258 271 272 0
6 3 9 6 6 7 -8 154 139 154 154 0 6 2 9 6 6 6 -7 800 784 796 795 -1 4 2 7 8
7 5 0 457 447 1004 994 547 546 997 991 1001 988 3 -3 5 0 5 6 0 14 97 112
112 112 6 0 9 3 5 6 -7 7 13 29 57 62 16 12 27 22 23 22 -4 0 27 34 69 75 42
41 81 75 86 75 5 0 7 3 5 8 -5 9 121 131 128 124 3 -3 5 0 5 6 0 14 279 292
293 292 6 0 8 2 5 5 -7 8 58 75 73 75 7 0 10 3 7 6 -8 7 59 74 74 74 6 0 9 2
6 5 -3 3 120 131 273 283 l279 279 0 1251 c0 689 -1 1252 -2 1251 -2 0 -160
-158 -351 -350z"/>
<path d="M186 3568 c-6 -30 -5 -2411 1 -2421 3 -4 12 -2 21 5 9 7 13 8 10 3
-4 -7 383 -10 1212 -10 1075 0 1217 2 1207 15 -7 8 -394 397 -862 864 -467
468 -849 855 -847 861 2 5 1 7 -3 3 -9 -8 -204 184 -198 195 2 4 0 6 -4 5 -5
-2 -42 30 -82 70 -41 39 -77 72 -82 72 -5 0 -8 3 -7 8 4 9 -120 132 -133 132
-5 0 -8 3 -7 8 3 9 -145 157 -154 154 -5 -1 -8 3 -8 8 0 13 -37 50 -50 50 -5
0 -12 -10 -14 -22z"/>
<path d="M9767 3566 c-15 -14 -27 -31 -27 -37 0 -7 -3 -10 -6 -6 -8 8 -44 -25
-38 -35 3 -4 1 -8 -4 -8 -13 0 -677 -663 -674 -672 1 -5 -2 -8 -8 -8 -5 0
-299 -289 -652 -642 -354 -354 -646 -642 -650 -640 -5 1 -8 -3 -8 -8 0 -13
-197 -210 -210 -210 -6 0 -9 -3 -7 -8 1 -4 -29 -38 -66 -75 -38 -37 -62 -68
-55 -68 7 -1 562 -2 1234 -3 l1221 -1 -1 1219 c-1 861 -4 1220 -12 1223 -6 2
-23 -8 -37 -21z"/>
</g>
</svg>
